<svg id="Capa_1" enable-background="new 0 0 512 512" height="512" viewBox="0 0 512 512" width="512" xmlns="http://www.w3.org/2000/svg"><g><path d="m201 356.664 139.381-100.664-139.381-100.664z"/><path d="m256 0c-141.159 0-256 114.841-256 256s114.841 256 256 256 256-114.841 256-256-114.841-256-256-256zm118.782 268.161-180 130c-2.605 1.881-5.687 2.84-8.784 2.84-2.333 0-4.673-.543-6.827-1.645-5.015-2.565-8.171-7.723-8.171-13.356v-260c0-5.633 3.156-10.791 8.171-13.355s11.044-2.103 15.611 1.195l180 130c3.905 2.82 6.218 7.344 6.218 12.16s-2.313 9.341-6.218 12.161z"/></g></svg>